<svg width="101" height="101" viewBox="0 0 101 101" fill="none" xmlns="http://www.w3.org/2000/svg">
<circle cx="1.40286" cy="1.40286" r="1.40286" fill="white" fill-opacity="0.3"/>
<circle cx="1.40286" cy="55.9552" r="1.40286" fill="white" fill-opacity="0.3"/>
<circle cx="55.9552" cy="1.40286" r="1.40286" fill="white" fill-opacity="0.3"/>
<circle cx="55.9552" cy="55.9552" r="1.40286" fill="white" fill-opacity="0.3"/>
<circle cx="1.40286" cy="12.3133" r="1.40286" fill="white" fill-opacity="0.3"/>
<circle cx="1.40286" cy="66.8657" r="1.40286" fill="white" fill-opacity="0.3"/>
<circle cx="55.9552" cy="12.3133" r="1.40286" fill="white" fill-opacity="0.3"/>
<circle cx="55.9552" cy="66.8657" r="1.40286" fill="white" fill-opacity="0.3"/>
<circle cx="1.40286" cy="23.2238" r="1.40286" fill="white" fill-opacity="0.3"/>
<circle cx="1.40286" cy="77.7762" r="1.40286" fill="white" fill-opacity="0.3"/>
<circle cx="55.9552" cy="23.2238" r="1.40286" fill="white" fill-opacity="0.3"/>
<circle cx="55.9552" cy="77.7762" r="1.40286" fill="white" fill-opacity="0.3"/>
<circle cx="1.40286" cy="34.1343" r="1.40286" fill="white" fill-opacity="0.3"/>
<circle cx="1.40286" cy="88.6867" r="1.40286" fill="white" fill-opacity="0.3"/>
<circle cx="55.9552" cy="34.1343" r="1.40286" fill="white" fill-opacity="0.3"/>
<circle cx="55.9552" cy="88.6867" r="1.40286" fill="white" fill-opacity="0.3"/>
<circle cx="1.40286" cy="45.0448" r="1.40286" fill="white" fill-opacity="0.3"/>
<circle cx="1.40286" cy="99.5971" r="1.40286" fill="white" fill-opacity="0.3"/>
<circle cx="55.9552" cy="45.0448" r="1.40286" fill="white" fill-opacity="0.3"/>
<circle cx="55.9552" cy="99.5971" r="1.40286" fill="white" fill-opacity="0.3"/>
<circle cx="12.3133" cy="1.40286" r="1.40286" fill="white" fill-opacity="0.3"/>
<circle cx="12.3133" cy="55.9552" r="1.40286" fill="white" fill-opacity="0.3"/>
<circle cx="66.8656" cy="1.40286" r="1.40286" fill="white" fill-opacity="0.3"/>
<circle cx="66.8656" cy="55.9552" r="1.40286" fill="white" fill-opacity="0.3"/>
<circle cx="12.3133" cy="12.3133" r="1.40286" fill="white" fill-opacity="0.3"/>
<circle cx="12.3133" cy="66.8657" r="1.40286" fill="white" fill-opacity="0.3"/>
<circle cx="66.8656" cy="12.3133" r="1.40286" fill="white" fill-opacity="0.3"/>
<circle cx="66.8656" cy="66.8657" r="1.40286" fill="white" fill-opacity="0.3"/>
<circle cx="12.3133" cy="23.2238" r="1.40286" fill="white" fill-opacity="0.3"/>
<circle cx="12.3133" cy="77.7762" r="1.40286" fill="white" fill-opacity="0.3"/>
<circle cx="66.8656" cy="23.2238" r="1.40286" fill="white" fill-opacity="0.3"/>
<circle cx="66.8656" cy="77.7762" r="1.40286" fill="white" fill-opacity="0.3"/>
<circle cx="12.3133" cy="34.1343" r="1.40286" fill="white" fill-opacity="0.3"/>
<circle cx="12.3133" cy="88.6867" r="1.40286" fill="white" fill-opacity="0.3"/>
<circle cx="66.8656" cy="34.1343" r="1.40286" fill="white" fill-opacity="0.3"/>
<circle cx="66.8656" cy="88.6867" r="1.40286" fill="white" fill-opacity="0.3"/>
<circle cx="12.3133" cy="45.0448" r="1.40286" fill="white" fill-opacity="0.3"/>
<circle cx="12.3133" cy="99.5971" r="1.40286" fill="white" fill-opacity="0.3"/>
<circle cx="66.8656" cy="45.0448" r="1.40286" fill="white" fill-opacity="0.3"/>
<circle cx="66.8656" cy="99.5971" r="1.40286" fill="white" fill-opacity="0.3"/>
<circle cx="23.2238" cy="1.40286" r="1.40286" fill="white" fill-opacity="0.3"/>
<circle cx="23.2238" cy="55.9552" r="1.40286" fill="white" fill-opacity="0.3"/>
<circle cx="77.7763" cy="1.40286" r="1.40286" fill="white" fill-opacity="0.3"/>
<circle cx="77.7763" cy="55.9552" r="1.40286" fill="white" fill-opacity="0.3"/>
<circle cx="23.2238" cy="12.3133" r="1.40286" fill="white" fill-opacity="0.3"/>
<circle cx="23.2238" cy="66.8657" r="1.40286" fill="white" fill-opacity="0.3"/>
<circle cx="77.7763" cy="12.3133" r="1.40286" fill="white" fill-opacity="0.3"/>
<circle cx="77.7763" cy="66.8657" r="1.40286" fill="white" fill-opacity="0.3"/>
<circle cx="23.2238" cy="23.2238" r="1.40286" fill="white" fill-opacity="0.3"/>
<circle cx="23.2238" cy="77.7762" r="1.40286" fill="white" fill-opacity="0.3"/>
<circle cx="77.7763" cy="23.2238" r="1.40286" fill="white" fill-opacity="0.3"/>
<circle cx="77.7763" cy="77.7762" r="1.40286" fill="white" fill-opacity="0.3"/>
<circle cx="23.2238" cy="34.1343" r="1.40286" fill="white" fill-opacity="0.3"/>
<circle cx="23.2238" cy="88.6867" r="1.40286" fill="white" fill-opacity="0.3"/>
<circle cx="77.7763" cy="34.1343" r="1.40286" fill="white" fill-opacity="0.3"/>
<circle cx="77.7763" cy="88.6867" r="1.40286" fill="white" fill-opacity="0.3"/>
<circle cx="23.2238" cy="45.0448" r="1.40286" fill="white" fill-opacity="0.3"/>
<circle cx="23.2238" cy="99.5971" r="1.40286" fill="white" fill-opacity="0.3"/>
<circle cx="77.7763" cy="45.0448" r="1.40286" fill="white" fill-opacity="0.3"/>
<circle cx="77.7763" cy="99.5971" r="1.40286" fill="white" fill-opacity="0.3"/>
<circle cx="34.1342" cy="1.40286" r="1.40286" fill="white" fill-opacity="0.3"/>
<circle cx="34.1342" cy="55.9552" r="1.40286" fill="white" fill-opacity="0.3"/>
<circle cx="88.6867" cy="1.40286" r="1.40286" fill="white" fill-opacity="0.3"/>
<circle cx="88.6867" cy="55.9552" r="1.40286" fill="white" fill-opacity="0.3"/>
<circle cx="34.1342" cy="12.3133" r="1.40286" fill="white" fill-opacity="0.3"/>
<circle cx="34.1342" cy="66.8657" r="1.40286" fill="white" fill-opacity="0.3"/>
<circle cx="88.6867" cy="12.3133" r="1.40286" fill="white" fill-opacity="0.3"/>
<circle cx="88.6867" cy="66.8657" r="1.40286" fill="white" fill-opacity="0.3"/>
<circle cx="34.1342" cy="23.2238" r="1.40286" fill="white" fill-opacity="0.3"/>
<circle cx="34.1342" cy="77.7762" r="1.40286" fill="white" fill-opacity="0.3"/>
<circle cx="88.6867" cy="23.2238" r="1.40286" fill="white" fill-opacity="0.3"/>
<circle cx="88.6867" cy="77.7762" r="1.40286" fill="white" fill-opacity="0.3"/>
<circle cx="34.1342" cy="34.1343" r="1.40286" fill="white" fill-opacity="0.3"/>
<circle cx="34.1342" cy="88.6867" r="1.40286" fill="white" fill-opacity="0.3"/>
<circle cx="88.6867" cy="34.1343" r="1.40286" fill="white" fill-opacity="0.3"/>
<circle cx="88.6867" cy="88.6867" r="1.40286" fill="white" fill-opacity="0.3"/>
<circle cx="34.1342" cy="45.0448" r="1.40286" fill="white" fill-opacity="0.3"/>
<circle cx="34.1342" cy="99.5971" r="1.40286" fill="white" fill-opacity="0.3"/>
<circle cx="88.6867" cy="45.0448" r="1.40286" fill="white" fill-opacity="0.3"/>
<circle cx="88.6867" cy="99.5971" r="1.40286" fill="white" fill-opacity="0.3"/>
<circle cx="45.0447" cy="1.40286" r="1.40286" fill="white" fill-opacity="0.3"/>
<circle cx="45.0447" cy="55.9552" r="1.40286" fill="white" fill-opacity="0.3"/>
<circle cx="99.5971" cy="1.40286" r="1.40286" fill="white" fill-opacity="0.3"/>
<circle cx="99.5971" cy="55.9552" r="1.40286" fill="white" fill-opacity="0.3"/>
<circle cx="45.0447" cy="12.3133" r="1.40286" fill="white" fill-opacity="0.3"/>
<circle cx="45.0447" cy="66.8657" r="1.40286" fill="white" fill-opacity="0.3"/>
<circle cx="99.5971" cy="12.3133" r="1.40286" fill="white" fill-opacity="0.3"/>
<circle cx="99.5971" cy="66.8657" r="1.40286" fill="white" fill-opacity="0.3"/>
<circle cx="45.0447" cy="23.2238" r="1.40286" fill="white" fill-opacity="0.3"/>
<circle cx="45.0447" cy="77.7762" r="1.40286" fill="white" fill-opacity="0.3"/>
<circle cx="99.5971" cy="23.2238" r="1.40286" fill="white" fill-opacity="0.3"/>
<circle cx="99.5971" cy="77.7762" r="1.40286" fill="white" fill-opacity="0.3"/>
<circle cx="45.0447" cy="34.1343" r="1.40286" fill="white" fill-opacity="0.3"/>
<circle cx="45.0447" cy="88.6867" r="1.40286" fill="white" fill-opacity="0.3"/>
<circle cx="99.5971" cy="34.1343" r="1.40286" fill="white" fill-opacity="0.3"/>
<circle cx="99.5971" cy="88.6867" r="1.40286" fill="white" fill-opacity="0.3"/>
<circle cx="45.0447" cy="45.0448" r="1.40286" fill="white" fill-opacity="0.3"/>
<circle cx="45.0447" cy="99.5971" r="1.40286" fill="white" fill-opacity="0.3"/>
<circle cx="99.5971" cy="45.0448" r="1.40286" fill="white" fill-opacity="0.3"/>
<circle cx="99.5971" cy="99.5971" r="1.40286" fill="white" fill-opacity="0.3"/>
</svg>
