<svg width="68" height="58" viewBox="0 0 68 58" fill="none" xmlns="http://www.w3.org/2000/svg">
<g clip-path="url(#clip0_53:93)">
<path d="M60.2594 42.6114H37.3339C37.0762 42.6114 36.5609 42.6114 36.3033 42.8692L19.0448 56.5436C18.7871 56.8017 18.7871 57.0597 19.0448 57.3178C19.0448 57.5759 19.3025 57.5759 19.5601 57.5759H60.5168C64.6385 57.5759 68.2447 53.9634 67.9873 49.5775C67.7296 45.4494 64.1232 42.6111 60.2594 42.6111" fill="#FF4A92"/>
<path d="M41.5556 28.2064C41.2979 26.1424 40.2675 24.0783 38.7221 22.7882L12.1902 1.63152C8.84146 -0.948685 4.20497 -0.432538 1.62894 2.92162C-0.947091 6.27577 -0.431778 10.9198 2.91696 13.5L22.2361 28.9804L2.91696 44.4608C-0.431778 47.041 -0.947091 51.6852 1.62894 55.0391C4.20497 58.3933 8.84146 58.9094 12.1902 56.3295L38.7221 34.6567C40.5252 33.1085 41.5556 31.0444 41.5556 28.7223V28.2062" fill="#FF4A92"/>
<path d="M67.9872 50.0933C67.9872 54.2215 64.6385 57.5756 60.517 57.5756C56.3956 57.5756 53.0469 54.2215 53.0469 50.0933C53.0469 45.9652 56.3956 42.6111 60.517 42.6111C64.6385 42.6111 67.9872 45.9652 67.9872 50.0933Z" fill="#7000F2"/>
</g>
<defs>
<clipPath id="clip0_53:93">
<rect width="68" height="58" fill="white"/>
</clipPath>
</defs>
</svg>
